<?xml version="1.0" standalone="no"?>
<!DOCTYPE svg PUBLIC "-//W3C//DTD SVG 20010904//EN"
 "http://www.w3.org/TR/2001/REC-SVG-20010904/DTD/svg10.dtd">
<svg version="1.0" xmlns="http://www.w3.org/2000/svg"
 width="512.000000pt" height="512.000000pt" viewBox="0 0 512.000000 512.000000"
 preserveAspectRatio="xMidYMid meet">
<metadata>
Created by potrace 1.14, written by Peter Selinger 2001-2017
</metadata>
<g transform="translate(0.000000,512.000000) scale(0.100000,-0.100000)"
fill="#000000" stroke="none">
<path d="M2379 5116 c-2 -2 -40 -6 -83 -10 -44 -4 -82 -8 -85 -10 -3 -2 -31
-7 -61 -11 -30 -3 -75 -11 -100 -17 -25 -5 -56 -12 -70 -14 -179 -34 -477
-151 -683 -267 -271 -154 -551 -392 -727 -617 -19 -25 -37 -47 -41 -50 -16
-13 -161 -235 -205 -315 -132 -238 -223 -485 -273 -740 -40 -200 -46 -267 -45
-515 0 -183 3 -241 19 -345 3 -16 7 -43 9 -60 16 -111 65 -303 115 -445 43
-124 115 -281 175 -385 20 -33 44 -76 55 -95 20 -36 131 -196 166 -239 162
-197 306 -337 489 -475 319 -239 734 -415 1111 -471 22 -4 51 -8 65 -11 150
-26 529 -26 708 1 75 12 90 14 142 25 30 6 66 13 80 16 88 16 347 102 440 146
25 11 68 31 96 44 69 31 211 114 309 179 422 280 774 717 958 1190 35 91 94
271 102 316 3 13 7 35 10 49 3 14 7 35 10 48 2 13 6 31 9 40 9 27 19 101 33
227 8 72 10 391 4 480 -2 28 -7 73 -12 100 -4 28 -10 66 -13 85 -2 19 -10 60
-16 90 -6 30 -14 66 -16 80 -3 14 -16 64 -30 112 -180 644 -608 1192 -1196
1531 -275 159 -583 265 -908 312 -19 3 -53 7 -75 11 -44 6 -460 15 -466 10z"/>
</g>
</svg>
